<!DOCTYPE svg PUBLIC "-//W3C//DTD SVG 20010904//EN" "http://www.w3.org/TR/2001/REC-SVG-20010904/DTD/svg10.dtd">
<svg version="1.0" xmlns="http://www.w3.org/2000/svg" width="240px" height="277px" viewBox="0 0 2400 2770" preserveAspectRatio="xMidYMid meet">
<g id="layer101" fill="#3871c1" stroke="none">
 <path d="M645 2399 c-313 -181 -572 -329 -577 -329 -4 0 -8 -305 -8 -678 l0 -679 26 -12 c15 -6 275 -156 579 -332 l553 -320 153 89 c85 48 336 193 559 322 223 128 415 239 428 247 l22 13 0 669 0 668 -577 333 c-318 183 -580 334 -583 336 -3 1 -262 -146 -575 -327z m1064 -172 l481 -279 0 -558 0 -558 -487 -282 -487 -281 -32 18 c-17 10 -234 135 -482 278 l-451 260 2 564 2 564 480 278 c264 153 483 277 486 276 3 -1 223 -127 488 -280z"/>
 <path d="M763 2132 l-422 -237 -1 -252 c0 -139 3 -253 7 -253 10 0 713 323 710 326 -2 2 -97 -10 -213 -26 -272 -39 -254 -40 -254 13 l0 44 283 158 c155 87 291 164 302 171 18 12 44 -1 251 -125 l232 -137 -659 -330 -659 -329 0 -105 1 -105 418 -232 c230 -128 422 -233 427 -235 5 -2 202 102 437 231 l427 235 0 258 c0 143 -3 257 -7 255 -5 -2 -173 -79 -376 -172 -202 -92 -365 -170 -363 -172 3 -4 417 60 474 72 21 5 22 2 22 -52 l0 -58 -303 -154 -302 -155 -195 108 c-107 60 -210 117 -228 128 l-32 20 655 326 656 326 -3 109 -3 109 -420 239 c-231 131 -424 238 -430 238 -5 0 -200 -107 -432 -237z"/>
 </g>

</svg>