<!DOCTYPE svg PUBLIC "-//W3C//DTD SVG 20010904//EN" "http://www.w3.org/TR/2001/REC-SVG-20010904/DTD/svg10.dtd">
<svg version="1.0" xmlns="http://www.w3.org/2000/svg" width="521px" height="280px" viewBox="0 0 5210 2800" preserveAspectRatio="xMidYMid meet">
<g id="layer101" fill="#3871c1" stroke="none">
<path d="M675 2439 c-313 -181 -572 -329 -577 -329 -4 0 -8 -305 -8 -678 l0 -679 26 -12 c15 -6 275 -156 579 -332 l553 -320 153 89 c85 48 336 193 559 322 223 128 415 239 428 247 l22 13 0 669 0 668 -577 333 c-318 183 -580 334 -583 336 -3 1 -262 -146 -575 -327z m1064 -172 l481 -279 0 -558 0 -558 -487 -282 -487 -281 -32 18 c-17 10 -234 135 -482 278 l-451 260 2 564 2 564 480 278 c264 153 483 277 486 276 3 -1 223 -127 488 -280z"/>
<path d="M793 2172 l-422 -237 -1 -252 c0 -139 3 -253 7 -253 10 0 713 323 710 326 -2 2 -97 -10 -213 -26 -272 -39 -254 -40 -254 13 l0 44 283 158 c155 87 291 164 302 171 18 12 44 -1 251 -125 l232 -137 -659 -330 -659 -329 0 -105 1 -105 418 -232 c230 -128 422 -233 427 -235 5 -2 202 102 437 231 l427 235 0 258 c0 143 -3 257 -7 255 -5 -2 -173 -79 -376 -172 -202 -92 -365 -170 -363 -172 3 -4 417 60 474 72 21 5 22 2 22 -52 l0 -58 -303 -154 -302 -155 -195 108 c-107 60 -210 117 -228 128 l-32 20 655 326 656 326 -3 109 -3 109 -420 239 c-231 131 -424 238 -430 238 -5 0 -200 -107 -432 -237z"/>
</g>
<g id="layer102" fill="#11a9e9" stroke="none">
<path d="M3780 1647 c-42 -15 -64 -28 -63 -38 1 -8 4 -44 8 -81 4 -38 9 -68 11 -68 3 0 14 5 25 10 30 17 128 32 159 25 31 -7 47 -32 31 -48 -6 -6 -40 -14 -76 -18 -108 -13 -158 -65 -157 -165 1 -125 97 -205 246 -203 33 0 79 6 101 13 l40 12 -3 64 c-5 97 -6 99 -50 89 -90 -21 -171 -4 -157 33 8 20 35 28 95 28 201 0 200 295 -1 354 -72 22 -132 20 -209 -7z"/>
<path d="M4818 1650 c-183 -97 -173 -455 15 -552 29 -15 61 -21 102 -22 136 -1 215 95 215 260 0 66 -6 74 -58 74 -48 0 -199 22 -213 31 -11 7 -7 16 19 39 40 37 70 38 140 5 64 -30 65 -30 58 -7 -2 9 -7 47 -11 85 -6 66 -7 68 -45 87 -53 27 -170 27 -222 0z m128 -320 c42 0 44 -1 44 -30 0 -20 -8 -35 -25 -46 -31 -20 -61 -11 -80 26 -20 39 -20 64 1 56 9 -3 36 -6 60 -6z"/>
<path d="M3018 1398 c3 -145 8 -273 13 -285 10 -28 80 -43 198 -43 175 0 263 67 263 200 0 68 -23 123 -64 153 -15 11 -28 25 -28 29 0 5 21 45 46 89 25 45 44 82 42 83 -2 2 -32 9 -68 15 -36 7 -75 15 -86 17 -19 5 -25 -4 -49 -73 -35 -96 -39 -101 -70 -96 -23 5 -24 9 -27 87 l-3 81 -85 3 -86 3 4 -263z m268 -59 c61 -50 22 -139 -61 -139 -25 0 -25 1 -25 84 l0 84 35 -8 c20 -4 42 -14 51 -21z"/>
<path d="M2445 1553 c3 -54 10 -180 14 -281 5 -100 11 -185 14 -188 2 -3 46 -8 96 -11 l91 -6 0 33 0 33 23 -20 c34 -32 62 -43 105 -43 85 0 142 75 161 213 12 86 14 260 5 320 l-7 37 -114 0 -114 0 6 -32 c38 -223 32 -398 -15 -398 -11 0 -28 12 -37 27 -15 23 -18 55 -21 208 -3 152 -6 182 -19 193 -11 7 -50 12 -106 12 l-89 0 7 -97z"/>
<path d="M4192 1385 c3 -146 8 -268 11 -271 3 -3 48 -10 100 -16 167 -20 271 21 322 126 25 52 27 64 22 135 -3 50 -12 92 -26 118 -57 113 -179 173 -350 173 l-84 0 5 -265z m234 96 c32 -20 64 -74 64 -110 0 -34 -26 -88 -48 -100 -52 -28 -56 -18 -67 142 -7 97 -3 101 51 68z"/>
</g>


</svg>